<mxfile host="app.diagrams.net" modified="2023-08-08T00:30:51.205Z" agent="Mozilla/5.0 (Windows NT 10.0; Win64; x64) AppleWebKit/537.36 (KHTML, like Gecko) Chrome/115.0.0.0 Safari/537.36" etag="XRCRwvRblzTgq-si2G5I" version="21.6.6" type="github">
  <diagram id="C5RBs43oDa-KdzZeNtuy" name="Page-1">
    <mxGraphModel dx="794" dy="472" grid="1" gridSize="10" guides="1" tooltips="1" connect="1" arrows="1" fold="1" page="1" pageScale="1" pageWidth="827" pageHeight="1169" math="0" shadow="0">
      <root>
        <mxCell id="WIyWlLk6GJQsqaUBKTNV-0" />
        <mxCell id="WIyWlLk6GJQsqaUBKTNV-1" parent="WIyWlLk6GJQsqaUBKTNV-0" />
        <mxCell id="J-N0XFMiK3ljtj7xjOsT-0" value="Start" style="ellipse;whiteSpace=wrap;html=1;aspect=fixed;" vertex="1" parent="WIyWlLk6GJQsqaUBKTNV-1">
          <mxGeometry x="305" y="40" width="70" height="70" as="geometry" />
        </mxCell>
        <mxCell id="J-N0XFMiK3ljtj7xjOsT-2" value="" style="endArrow=classic;html=1;rounded=0;entryX=0.5;entryY=0;entryDx=0;entryDy=0;" edge="1" parent="WIyWlLk6GJQsqaUBKTNV-1" target="J-N0XFMiK3ljtj7xjOsT-3">
          <mxGeometry width="50" height="50" relative="1" as="geometry">
            <mxPoint x="339.5" y="110" as="sourcePoint" />
            <mxPoint x="340" y="150" as="targetPoint" />
          </mxGeometry>
        </mxCell>
        <mxCell id="J-N0XFMiK3ljtj7xjOsT-10" value="" style="edgeStyle=orthogonalEdgeStyle;rounded=0;orthogonalLoop=1;jettySize=auto;html=1;" edge="1" parent="WIyWlLk6GJQsqaUBKTNV-1" source="J-N0XFMiK3ljtj7xjOsT-3" target="J-N0XFMiK3ljtj7xjOsT-4">
          <mxGeometry relative="1" as="geometry" />
        </mxCell>
        <mxCell id="J-N0XFMiK3ljtj7xjOsT-3" value="Game Set-up" style="rounded=0;whiteSpace=wrap;html=1;" vertex="1" parent="WIyWlLk6GJQsqaUBKTNV-1">
          <mxGeometry x="280" y="160" width="120" height="40" as="geometry" />
        </mxCell>
        <mxCell id="J-N0XFMiK3ljtj7xjOsT-22" value="" style="edgeStyle=orthogonalEdgeStyle;rounded=0;orthogonalLoop=1;jettySize=auto;html=1;" edge="1" parent="WIyWlLk6GJQsqaUBKTNV-1" source="J-N0XFMiK3ljtj7xjOsT-4" target="J-N0XFMiK3ljtj7xjOsT-9">
          <mxGeometry relative="1" as="geometry" />
        </mxCell>
        <mxCell id="J-N0XFMiK3ljtj7xjOsT-4" value="Get user guess" style="rounded=0;whiteSpace=wrap;html=1;" vertex="1" parent="WIyWlLk6GJQsqaUBKTNV-1">
          <mxGeometry x="280" y="240" width="120" height="40" as="geometry" />
        </mxCell>
        <mxCell id="J-N0XFMiK3ljtj7xjOsT-13" value="" style="edgeStyle=orthogonalEdgeStyle;rounded=0;orthogonalLoop=1;jettySize=auto;html=1;" edge="1" parent="WIyWlLk6GJQsqaUBKTNV-1" source="J-N0XFMiK3ljtj7xjOsT-9" target="J-N0XFMiK3ljtj7xjOsT-12">
          <mxGeometry relative="1" as="geometry" />
        </mxCell>
        <mxCell id="J-N0XFMiK3ljtj7xjOsT-17" value="" style="edgeStyle=orthogonalEdgeStyle;rounded=0;orthogonalLoop=1;jettySize=auto;html=1;" edge="1" parent="WIyWlLk6GJQsqaUBKTNV-1" source="J-N0XFMiK3ljtj7xjOsT-9" target="J-N0XFMiK3ljtj7xjOsT-15">
          <mxGeometry relative="1" as="geometry" />
        </mxCell>
        <mxCell id="J-N0XFMiK3ljtj7xjOsT-40" style="edgeStyle=orthogonalEdgeStyle;rounded=0;orthogonalLoop=1;jettySize=auto;html=1;exitX=0;exitY=0.5;exitDx=0;exitDy=0;entryX=0;entryY=0.75;entryDx=0;entryDy=0;" edge="1" parent="WIyWlLk6GJQsqaUBKTNV-1" source="J-N0XFMiK3ljtj7xjOsT-9" target="J-N0XFMiK3ljtj7xjOsT-4">
          <mxGeometry relative="1" as="geometry">
            <mxPoint x="250" y="270" as="targetPoint" />
            <Array as="points">
              <mxPoint x="200" y="385" />
              <mxPoint x="200" y="270" />
            </Array>
          </mxGeometry>
        </mxCell>
        <mxCell id="J-N0XFMiK3ljtj7xjOsT-9" value="Check guess" style="rhombus;whiteSpace=wrap;html=1;" vertex="1" parent="WIyWlLk6GJQsqaUBKTNV-1">
          <mxGeometry x="275" y="340" width="130" height="90" as="geometry" />
        </mxCell>
        <mxCell id="J-N0XFMiK3ljtj7xjOsT-23" value="" style="edgeStyle=orthogonalEdgeStyle;rounded=0;orthogonalLoop=1;jettySize=auto;html=1;" edge="1" parent="WIyWlLk6GJQsqaUBKTNV-1" source="J-N0XFMiK3ljtj7xjOsT-12" target="J-N0XFMiK3ljtj7xjOsT-21">
          <mxGeometry relative="1" as="geometry" />
        </mxCell>
        <mxCell id="J-N0XFMiK3ljtj7xjOsT-39" style="edgeStyle=orthogonalEdgeStyle;rounded=0;orthogonalLoop=1;jettySize=auto;html=1;startArrow=none;startFill=0;entryX=0;entryY=0.5;entryDx=0;entryDy=0;exitX=0;exitY=0.5;exitDx=0;exitDy=0;" edge="1" parent="WIyWlLk6GJQsqaUBKTNV-1" source="J-N0XFMiK3ljtj7xjOsT-21" target="J-N0XFMiK3ljtj7xjOsT-4">
          <mxGeometry relative="1" as="geometry">
            <mxPoint x="260" y="260" as="targetPoint" />
            <Array as="points">
              <mxPoint x="150" y="585" />
              <mxPoint x="150" y="260" />
            </Array>
          </mxGeometry>
        </mxCell>
        <mxCell id="J-N0XFMiK3ljtj7xjOsT-12" value="Remove Dot Com" style="rounded=0;whiteSpace=wrap;html=1;" vertex="1" parent="WIyWlLk6GJQsqaUBKTNV-1">
          <mxGeometry x="280" y="460" width="120" height="40" as="geometry" />
        </mxCell>
        <mxCell id="J-N0XFMiK3ljtj7xjOsT-14" value="&#39;kill&#39;" style="text;html=1;strokeColor=none;fillColor=none;align=center;verticalAlign=middle;whiteSpace=wrap;rounded=0;" vertex="1" parent="WIyWlLk6GJQsqaUBKTNV-1">
          <mxGeometry x="330" y="430" width="60" height="30" as="geometry" />
        </mxCell>
        <mxCell id="J-N0XFMiK3ljtj7xjOsT-20" style="edgeStyle=orthogonalEdgeStyle;rounded=0;orthogonalLoop=1;jettySize=auto;html=1;exitX=0.5;exitY=0;exitDx=0;exitDy=0;entryX=1;entryY=0.5;entryDx=0;entryDy=0;" edge="1" parent="WIyWlLk6GJQsqaUBKTNV-1" source="J-N0XFMiK3ljtj7xjOsT-15" target="J-N0XFMiK3ljtj7xjOsT-4">
          <mxGeometry relative="1" as="geometry" />
        </mxCell>
        <mxCell id="J-N0XFMiK3ljtj7xjOsT-15" value="Remove location cell" style="rounded=0;whiteSpace=wrap;html=1;" vertex="1" parent="WIyWlLk6GJQsqaUBKTNV-1">
          <mxGeometry x="450" y="365" width="120" height="40" as="geometry" />
        </mxCell>
        <mxCell id="J-N0XFMiK3ljtj7xjOsT-18" value="&#39;hit&#39;" style="text;html=1;strokeColor=none;fillColor=none;align=center;verticalAlign=middle;whiteSpace=wrap;rounded=0;" vertex="1" parent="WIyWlLk6GJQsqaUBKTNV-1">
          <mxGeometry x="394" y="360" width="60" height="30" as="geometry" />
        </mxCell>
        <mxCell id="J-N0XFMiK3ljtj7xjOsT-44" style="edgeStyle=orthogonalEdgeStyle;rounded=0;orthogonalLoop=1;jettySize=auto;html=1;entryX=0.5;entryY=0;entryDx=0;entryDy=0;" edge="1" parent="WIyWlLk6GJQsqaUBKTNV-1" source="J-N0XFMiK3ljtj7xjOsT-21" target="J-N0XFMiK3ljtj7xjOsT-43">
          <mxGeometry relative="1" as="geometry" />
        </mxCell>
        <mxCell id="J-N0XFMiK3ljtj7xjOsT-21" value="Still some Dot Coms&lt;br&gt;alive" style="rhombus;whiteSpace=wrap;html=1;" vertex="1" parent="WIyWlLk6GJQsqaUBKTNV-1">
          <mxGeometry x="270" y="535" width="140" height="100" as="geometry" />
        </mxCell>
        <mxCell id="J-N0XFMiK3ljtj7xjOsT-41" value="&#39;miss&#39;" style="text;html=1;strokeColor=none;fillColor=none;align=center;verticalAlign=middle;whiteSpace=wrap;rounded=0;" vertex="1" parent="WIyWlLk6GJQsqaUBKTNV-1">
          <mxGeometry x="210" y="360" width="60" height="30" as="geometry" />
        </mxCell>
        <mxCell id="J-N0XFMiK3ljtj7xjOsT-42" value="Yes" style="text;html=1;strokeColor=none;fillColor=none;align=center;verticalAlign=middle;whiteSpace=wrap;rounded=0;" vertex="1" parent="WIyWlLk6GJQsqaUBKTNV-1">
          <mxGeometry x="190" y="555" width="60" height="30" as="geometry" />
        </mxCell>
        <mxCell id="J-N0XFMiK3ljtj7xjOsT-47" style="edgeStyle=orthogonalEdgeStyle;rounded=0;orthogonalLoop=1;jettySize=auto;html=1;entryX=0.5;entryY=0;entryDx=0;entryDy=0;" edge="1" parent="WIyWlLk6GJQsqaUBKTNV-1" source="J-N0XFMiK3ljtj7xjOsT-43" target="J-N0XFMiK3ljtj7xjOsT-46">
          <mxGeometry relative="1" as="geometry" />
        </mxCell>
        <mxCell id="J-N0XFMiK3ljtj7xjOsT-43" value="Display user score/rating" style="rounded=0;whiteSpace=wrap;html=1;" vertex="1" parent="WIyWlLk6GJQsqaUBKTNV-1">
          <mxGeometry x="280" y="680" width="120" height="40" as="geometry" />
        </mxCell>
        <mxCell id="J-N0XFMiK3ljtj7xjOsT-45" value="No" style="text;html=1;strokeColor=none;fillColor=none;align=center;verticalAlign=middle;whiteSpace=wrap;rounded=0;" vertex="1" parent="WIyWlLk6GJQsqaUBKTNV-1">
          <mxGeometry x="330" y="635" width="60" height="30" as="geometry" />
        </mxCell>
        <mxCell id="J-N0XFMiK3ljtj7xjOsT-46" value="Game over" style="ellipse;whiteSpace=wrap;html=1;aspect=fixed;" vertex="1" parent="WIyWlLk6GJQsqaUBKTNV-1">
          <mxGeometry x="302.5" y="775" width="75" height="75" as="geometry" />
        </mxCell>
      </root>
    </mxGraphModel>
  </diagram>
</mxfile>
